<svg width="93" height="93" viewBox="0 0 93 93" fill="none" xmlns="http://www.w3.org/2000/svg">
<g id="001-javascript">
<path id="Vector" d="M91.2386 42.6369C91.1905 42.1594 91.0119 41.7043 90.7222 41.3217C90.4324 40.9391 90.0429 40.6437 89.5963 40.4679L82.3456 37.5707C81.4624 33.9943 80.0415 30.5727 78.1315 27.4227L81.2146 20.2494C81.4094 19.8073 81.4778 19.3199 81.4122 18.8412C81.3465 18.3626 81.1494 17.9115 80.8428 17.5382C80.0371 16.5621 79.154 15.617 78.2554 14.7029C77.3568 13.7888 76.3963 12.9212 75.4202 12.1156C75.0469 11.8089 74.5958 11.6118 74.1171 11.5462C73.6385 11.4805 73.151 11.5489 72.7089 11.7437L65.5356 14.8269C62.3856 12.9169 58.964 11.496 55.3877 10.6128L52.4905 3.362C52.3147 2.91542 52.0193 2.5259 51.6366 2.2362C51.254 1.94649 50.799 1.7678 50.3214 1.71974C49.051 1.5958 47.7651 1.54932 46.4792 1.54932C45.1932 1.54932 43.9073 1.5958 42.6369 1.71974C42.1594 1.7678 41.7043 1.94649 41.3217 2.2362C40.9391 2.5259 40.6436 2.91542 40.4679 3.362L37.5707 10.6128C33.9943 11.496 30.5727 12.9169 27.4227 14.8269L20.2494 11.7437C19.8073 11.5489 19.3198 11.4805 18.8412 11.5462C18.3625 11.6118 17.9115 11.8089 17.5381 12.1156C16.5621 12.9212 15.617 13.8043 14.7029 14.7029C13.7888 15.6015 12.9212 16.5621 12.1156 17.5382C11.8089 17.9115 11.6118 18.3626 11.5462 18.8412C11.4805 19.3199 11.5489 19.8073 11.7437 20.2494L14.8268 27.4227C12.9169 30.5727 11.496 33.9943 10.6127 37.5707L3.36199 40.4679C2.91541 40.6437 2.52589 40.9391 2.23618 41.3217C1.94648 41.7043 1.76779 42.1594 1.71972 42.6369C1.59578 43.9073 1.5493 45.1933 1.5493 46.4792C1.5493 47.7651 1.59578 49.051 1.71972 50.3215C1.76779 50.799 1.94648 51.254 2.23618 51.6367C2.52589 52.0193 2.91541 52.3147 3.36199 52.4905L10.6127 55.3877C11.496 58.9641 12.9169 62.3857 14.8268 65.5356L11.7437 72.7089C11.5489 73.151 11.4805 73.6385 11.5462 74.1172C11.6118 74.5958 11.8089 75.0469 12.1156 75.4202C12.9212 76.3963 13.8043 77.3413 14.7029 78.2554C15.6015 79.1695 16.5621 80.0371 17.5381 80.8428C17.9115 81.1494 18.3625 81.3465 18.8412 81.4122C19.3198 81.4778 19.8073 81.4094 20.2494 81.2146L27.4227 78.1315C30.5727 80.0415 33.9943 81.4624 37.5707 82.3456L40.4679 89.5964C40.6436 90.0429 40.9391 90.4325 41.3217 90.7222C41.7043 91.0119 42.1594 91.1906 42.6369 91.2386C43.9073 91.3626 45.1932 91.409 46.4792 91.409C47.7651 91.409 49.051 91.3626 50.3214 91.2386C50.799 91.1906 51.254 91.0119 51.6366 90.7222C52.0193 90.4325 52.3147 90.0429 52.4905 89.5964L55.3877 82.3456C58.964 81.4624 62.3856 80.0415 65.5356 78.1315L72.7089 81.2146C73.151 81.4094 73.6385 81.4778 74.1171 81.4122C74.5958 81.3465 75.0469 81.1494 75.4202 80.8428C76.3963 80.0371 77.3413 79.154 78.2554 78.2554C79.1695 77.3568 80.0371 76.3963 80.8428 75.4202C81.1494 75.0469 81.3465 74.5958 81.4122 74.1172C81.4778 73.6385 81.4094 73.151 81.2146 72.7089L78.1315 65.5356C80.0415 62.3857 81.4624 58.9641 82.3456 55.3877L89.5963 52.4905C90.0429 52.3147 90.4324 52.0193 90.7222 51.6367C91.0119 51.254 91.1905 50.799 91.2386 50.3215C91.3625 49.051 91.409 47.7651 91.409 46.4792C91.409 45.1933 91.3625 43.9073 91.2386 42.6369ZM46.4792 74.3667C40.9635 74.3667 35.5718 72.7311 30.9857 69.6668C26.3996 66.6025 22.8252 62.247 20.7145 57.1513C18.6037 52.0555 18.0515 46.4482 19.1275 41.0386C20.2036 35.629 22.8596 30.6599 26.7597 26.7597C30.6599 22.8596 35.6289 20.2036 41.0386 19.1275C46.4482 18.0515 52.0555 18.6038 57.1513 20.7145C62.247 22.8252 66.6025 26.3996 69.6668 30.9857C72.7311 35.5718 74.3667 40.9636 74.3667 46.4792C74.3556 53.872 71.4139 60.9589 66.1864 66.1864C60.9589 71.4139 53.872 74.3556 46.4792 74.3667Z" fill="#CCD0DA"/>
<path id="Vector_2" d="M46.4792 69.7188C59.314 69.7188 69.7187 59.314 69.7187 46.4792C69.7187 33.6443 59.314 23.2396 46.4792 23.2396C33.6443 23.2396 23.2396 33.6443 23.2396 46.4792C23.2396 59.314 33.6443 69.7188 46.4792 69.7188Z" fill="#FAA116"/>
<path id="Vector_3" d="M46.4792 15.493C40.3507 15.493 34.3598 17.3103 29.2642 20.7151C24.1686 24.1199 20.197 28.9593 17.8517 34.6213C15.5065 40.2833 14.8928 46.5135 16.0884 52.5242C17.2841 58.535 20.2352 64.0562 24.5687 68.3896C28.9022 72.7231 34.4234 75.6743 40.4341 76.8699C46.4448 78.0655 52.6751 77.4519 58.337 75.1066C63.999 72.7613 68.8384 68.7898 72.2432 63.6941C75.648 58.5985 77.4653 52.6076 77.4653 46.4792C77.4571 38.2636 74.1898 30.387 68.3806 24.5777C62.5714 18.7685 54.6947 15.5012 46.4792 15.493ZM46.4792 74.3667C40.9635 74.3667 35.5718 72.7311 30.9857 69.6668C26.3996 66.6024 22.8252 62.247 20.7145 57.1512C18.6037 52.0555 18.0515 46.4482 19.1275 41.0386C20.2036 35.6289 22.8596 30.6598 26.7597 26.7597C30.6599 22.8596 35.6289 20.2035 41.0386 19.1275C46.4482 18.0515 52.0555 18.6037 57.1513 20.7145C62.247 22.8252 66.6025 26.3996 69.6668 30.9857C72.7311 35.5718 74.3667 40.9635 74.3667 46.4792C74.3556 53.872 71.4139 60.9589 66.1864 66.1864C60.9589 71.4139 53.872 74.3556 46.4792 74.3667Z" fill="#B9BFCC"/>
<path id="Vector_4" d="M52.6764 44.9299C52.4045 44.9296 52.1375 44.8578 51.9021 44.7216C51.6668 44.5855 51.4714 44.3898 51.3356 44.1542C51.1998 43.9187 51.1284 43.6515 51.1286 43.3796C51.1288 43.1077 51.2005 42.8406 51.3365 42.6052C51.4726 42.3698 51.6682 42.1744 51.9037 42.0385C52.1393 41.9027 52.4064 41.8312 52.6783 41.8312C52.9502 41.8313 53.2173 41.9029 53.4527 42.0389C53.6882 42.1749 53.8837 42.3704 54.0196 42.6059C54.2316 42.9485 54.5686 43.195 54.9592 43.2933C55.3498 43.3915 55.7634 43.3338 56.1122 43.1323C56.461 42.9308 56.7176 42.6014 56.8276 42.2139C56.9376 41.8264 56.8924 41.4113 56.7015 41.0566C56.2935 40.35 55.7068 39.7633 55.0002 39.3553C54.2936 38.9474 53.4921 38.7326 52.6762 38.7326C51.8604 38.7326 51.0589 38.9474 50.3523 39.3554C49.6457 39.7633 49.059 40.3501 48.651 41.0566C48.2431 41.7632 48.0283 42.5647 48.0284 43.3806C48.0284 44.1965 48.2432 44.998 48.6511 45.7046C49.0591 46.4112 49.6458 46.9979 50.3524 47.4058C51.059 47.8137 51.8605 48.0285 52.6764 48.0285C52.9483 48.0287 53.2153 48.1005 53.4507 48.2367C53.686 48.3728 53.8814 48.5685 54.0172 48.8041C54.153 49.0397 54.2244 49.3068 54.2242 49.5787C54.224 49.8506 54.1523 50.1177 54.0162 50.3531C53.8802 50.5885 53.6846 50.7839 53.449 50.9198C53.2135 51.0557 52.9464 51.1271 52.6745 51.1271C52.4026 51.127 52.1355 51.0554 51.9001 50.9194C51.6646 50.7834 51.4691 50.5879 51.3331 50.3524C51.1212 50.0099 50.7842 49.7633 50.3936 49.6651C50.0029 49.5668 49.5894 49.6245 49.2406 49.826C48.8918 50.0275 48.6352 50.3569 48.5252 50.7444C48.4152 51.1319 48.4604 51.547 48.6513 51.9017C49.0592 52.6083 49.646 53.1951 50.3526 53.603C51.0591 54.0109 51.8607 54.2257 52.6765 54.2257C53.4924 54.2257 54.2939 54.0109 55.0005 53.603C55.7071 53.195 56.2938 52.6083 56.7018 51.9017C57.1097 51.1951 57.3244 50.3936 57.3244 49.5777C57.3244 48.7618 57.1096 47.9603 56.7017 47.2537C56.2937 46.5472 55.707 45.9604 55.0004 45.5525C54.2938 45.1446 53.4923 44.9298 52.6764 44.9299Z" fill="white"/>
<path id="Vector_5" d="M44.9299 38.7326H38.7326C38.3217 38.7326 37.9277 38.8959 37.6371 39.1864C37.3466 39.477 37.1833 39.871 37.1833 40.2819C37.1833 40.6928 37.3466 41.0869 37.6371 41.3775C37.9277 41.668 38.3217 41.8312 38.7326 41.8312H41.8313V49.5778C41.8313 49.9887 41.668 50.3827 41.3775 50.6733C41.0869 50.9639 40.6929 51.1271 40.2819 51.1271C39.871 51.1271 39.477 50.9639 39.1864 50.6733C38.8959 50.3827 38.7326 49.9887 38.7326 49.5778V48.0285C38.7326 47.6176 38.5694 47.2235 38.2789 46.9329C37.9883 46.6424 37.5942 46.4792 37.1833 46.4792C36.7724 46.4792 36.3784 46.6424 36.0878 46.9329C35.7973 47.2235 35.634 47.6176 35.634 48.0285V49.5778C35.634 50.8105 36.1237 51.9927 36.9954 52.8643C37.867 53.736 39.0492 54.2257 40.2819 54.2257C41.5147 54.2257 42.6969 53.736 43.5685 52.8643C44.4402 51.9927 44.9299 50.8105 44.9299 49.5778V41.8312C45.3408 41.8312 45.7348 41.668 46.0254 41.3775C46.3159 41.0869 46.4792 40.6928 46.4792 40.2819C46.4792 39.871 46.3159 39.477 46.0254 39.1864C45.7348 38.8959 45.3408 38.7326 44.9299 38.7326Z" fill="white"/>
<g id="Group">
<path id="Vector_6" d="M32.1698 54.2257C31.348 54.2257 30.5598 53.8992 29.9787 53.3181C29.3976 52.737 29.0712 51.9489 29.0712 51.1271V50.309C29.0715 50.0685 29.0152 49.8313 28.9069 49.6165L28.3771 48.5583C28.0568 47.9123 27.8901 47.201 27.8901 46.4799C27.8901 45.7589 28.0568 45.0476 28.3771 44.4015L28.9069 43.3418C29.0152 43.127 29.0715 42.8898 29.0712 42.6493V41.8312C29.0712 41.0094 29.3976 40.2213 29.9787 39.6402C30.5598 39.0591 31.348 38.7326 32.1698 38.7326C32.5807 38.7326 32.9748 38.8959 33.2653 39.1864C33.5559 39.477 33.7191 39.871 33.7191 40.2819C33.7191 40.6928 33.5559 41.0869 33.2653 41.3775C32.9748 41.668 32.5807 41.8312 32.1698 41.8312V42.6493C32.1686 43.3704 32.0005 44.0816 31.6786 44.7269L31.1488 45.7866C31.0426 46.0023 30.9873 46.2395 30.9873 46.4799C30.9873 46.7204 31.0426 46.9576 31.1488 47.1733L31.6786 48.2314C32.0005 48.8768 32.1686 49.5879 32.1698 50.309V51.1271C32.5807 51.1271 32.9748 51.2903 33.2653 51.5809C33.5559 51.8714 33.7191 52.2655 33.7191 52.6764C33.7191 53.0873 33.5559 53.4814 33.2653 53.7719C32.9748 54.0625 32.5807 54.2257 32.1698 54.2257Z" fill="#DD7800"/>
<path id="Vector_7" d="M60.7886 54.2257C60.3777 54.2257 59.9836 54.0625 59.693 53.7719C59.4025 53.4814 59.2393 53.0873 59.2393 52.6764C59.2393 52.2655 59.4025 51.8714 59.693 51.5809C59.9836 51.2903 60.3777 51.1271 60.7886 51.1271V50.309C60.7897 49.5879 60.9578 48.8768 61.2797 48.2314L61.8095 47.1717C61.9158 46.956 61.971 46.7188 61.971 46.4784C61.971 46.238 61.9158 46.0008 61.8095 45.7851L61.2797 44.7269C60.9578 44.0816 60.7897 43.3704 60.7886 42.6493V41.8312C60.3777 41.8312 59.9836 41.668 59.693 41.3775C59.4025 41.0869 59.2393 40.6928 59.2393 40.2819C59.2393 39.871 59.4025 39.477 59.693 39.1864C59.9836 38.8959 60.3777 38.7326 60.7886 38.7326C61.6104 38.7326 62.3985 39.0591 62.9796 39.6402C63.5607 40.2213 63.8872 41.0094 63.8872 41.8312V42.6493C63.8869 42.8898 63.9431 43.127 64.0514 43.3418L64.5813 44.4C64.9016 45.046 65.0682 45.7573 65.0682 46.4784C65.0682 47.1995 64.9016 47.9108 64.5813 48.5568L64.0514 49.6165C63.9431 49.8313 63.8869 50.0685 63.8872 50.309V51.1271C63.8872 51.9489 63.5607 52.737 62.9796 53.3181C62.3985 53.8992 61.6104 54.2257 60.7886 54.2257Z" fill="#DD7800"/>
</g>
</g>
</svg>
