<svg width="93" height="94" viewBox="0 0 93 94" fill="none" xmlns="http://www.w3.org/2000/svg">
<g id="004-ecommerce" clip-path="url(#clip0_1_84)">
<path id="Vector" d="M81.8832 0.299805V30.6202H65.5429L49.2025 14.2799V0.299805H81.8832Z" fill="#FF6536"/>
<path id="Vector_2" d="M81.8832 0.299805V30.6202H65.5429L54.6493 19.7266V0.299805H81.8832Z" fill="#F03800"/>
<path id="Vector_3" d="M32.8622 11.5565H65.5429V30.6202H32.8622V11.5565Z" fill="#FDBF00"/>
<path id="Vector_4" d="M54.6493 11.5565H65.5429V30.6202H54.6493V11.5565Z" fill="#FF9100"/>
<path id="Vector_5" d="M92.9583 71.471V76.9178H22.241L16.7942 22.45H0V17.0033H21.6963L22.7857 27.8968H92.9583L86.8938 66.0243H26.5984L27.1431 71.471H92.9583Z" fill="#7ED8F6"/>
<path id="Vector_6" d="M27.4154 85.088C27.4154 89.5929 31.0807 93.2581 35.5856 93.2581C40.0905 93.2581 43.7558 89.5929 43.7558 85.088C43.7558 80.583 40.0905 76.9178 35.5856 76.9178C31.0807 76.9178 27.4154 80.583 27.4154 85.088Z" fill="#7ED8F6"/>
<g id="Group">
<path id="Vector_7" d="M81.8832 85.088C81.8832 89.6085 78.2343 93.2581 73.713 93.2581C69.1918 93.2581 65.5429 89.6085 65.5429 85.088C65.5429 80.5667 69.1918 76.9178 73.713 76.9178C78.2343 76.9178 81.8832 80.5667 81.8832 85.088Z" fill="#6AA9FF"/>
<path id="Vector_8" d="M54.6493 71.471H92.9583V76.9178H54.6493V71.471Z" fill="#6AA9FF"/>
<path id="Vector_9" d="M86.8938 66.0243H54.6493V27.8968H92.9583L86.8938 66.0243Z" fill="#6AA9FF"/>
</g>
</g>
<defs>
<clipPath id="clip0_1_84">
<rect width="92.9583" height="92.9583" fill="white" transform="translate(0 0.299805)"/>
</clipPath>
</defs>
</svg>
